<svg width="32" height="32" viewBox="0 0 32 32" fill="none" xmlns="http://www.w3.org/2000/svg">
<path d="M16.1641 0.00390625C17.855 0.0893991 19.2002 1.48797 19.2002 3.2002L19.1953 3.36426C19.1538 4.18445 18.8019 4.92141 18.2568 5.46484L23.4443 12.9219C23.7227 12.8428 24.0166 12.7998 24.3203 12.7998L24.4844 12.8037C26.1752 12.8893 27.5204 14.2879 27.5205 16L27.5156 16.1641C27.4548 17.3662 26.7289 18.3903 25.7002 18.8838L28.0654 25.6855C28.3013 25.6301 28.547 25.5996 28.7998 25.5996L28.9639 25.6035C30.6547 25.689 31.9998 27.0878 32 28.7998L31.9951 28.9639C31.9096 30.6548 30.5119 31.9999 28.7998 32L28.6348 31.9951C26.9987 31.9119 25.6862 30.6001 25.6035 28.9639L25.5996 28.7998C25.5997 27.6413 26.2175 26.629 27.1396 26.0674L24.7412 19.1719C24.6034 19.19 24.463 19.2002 24.3203 19.2002L24.1553 19.1953C24.0763 19.1913 23.9983 19.1815 23.9209 19.1719L24 19.2002L21.5908 26.124C22.4628 26.6957 23.0399 27.6795 23.04 28.7998L23.0352 28.9639C22.9497 30.6548 21.552 31.9999 19.8398 32L19.6748 31.9951C18.0387 31.9119 16.7263 30.6001 16.6436 28.9639L16.6396 28.7998C16.6399 27.0328 18.0728 25.5998 19.8398 25.5996L20.0039 25.6035C20.2349 25.6152 20.4593 25.6538 20.6748 25.7119L23.0352 18.9297C21.9552 18.4556 21.1867 17.4035 21.124 16.1641L21.1201 16C21.1202 14.8983 21.6768 13.9262 22.5244 13.3506L17.4482 6.05273C17.0133 6.27411 16.5215 6.40036 16 6.40039L15.835 6.39551C15.3867 6.37274 14.964 6.25505 14.583 6.06641L9.50293 13.3721C10.3346 13.9501 10.8798 14.9107 10.8799 16L10.875 16.1641C10.8142 17.3664 10.0886 18.3904 9.05957 18.8838L11.4258 25.6855C11.6617 25.6301 11.9074 25.5996 12.1602 25.5996L12.3242 25.6035C14.0151 25.689 15.3601 27.0878 15.3604 28.7998L15.3555 28.9639C15.27 30.6548 13.8723 31.9999 12.1602 32L11.9951 31.9951C10.3589 31.912 9.0466 30.6002 8.96387 28.9639L8.95996 28.7998C8.9601 27.6412 9.57771 26.6289 10.5 26.0674L8.10156 19.1719C7.96363 19.19 7.82258 19.2002 7.67969 19.2002L7.51465 19.1953C7.43594 19.1913 7.35836 19.1815 7.28125 19.1719L7.36035 19.2002L4.95117 26.125C5.82273 26.6968 6.40026 27.6798 6.40039 28.7998L6.39551 28.9639C6.31 30.6548 4.91232 31.9999 3.2002 32L3.03516 31.9951C1.39887 31.9121 0.086638 30.6002 0.00390625 28.9639L0 28.7998C0.000208233 27.0327 1.43301 25.5996 3.2002 25.5996L3.36426 25.6035C3.59537 25.6152 3.81951 25.6537 4.03516 25.7119L6.39453 18.9287C5.31503 18.4544 4.54605 17.4032 4.4834 16.1641L4.47949 16C4.4796 14.2329 5.91266 12.8001 7.67969 12.7998L7.84375 12.8037C8.10121 12.8167 8.34999 12.8642 8.58789 12.9346L13.7666 5.48926C13.2074 4.94384 12.8458 4.19666 12.8037 3.36426L12.7998 3.2002C12.7998 1.43294 14.2328 8.3504e-05 16 0L16.1641 0.00390625ZM3.2002 26.5996C1.9853 26.5996 1.00021 27.585 1 28.7998C1.00011 30.0147 1.98523 31 3.2002 31C4.41507 30.9999 5.40029 30.0147 5.40039 28.7998C5.40018 27.585 4.415 26.5997 3.2002 26.5996ZM12.1602 26.5996C10.9453 26.5996 9.96017 27.585 9.95996 28.7998C9.96007 30.0147 10.9452 31 12.1602 31C13.375 30.9999 14.3602 30.0147 14.3604 28.7998C14.3601 27.585 13.375 26.5997 12.1602 26.5996ZM19.8398 26.5996C18.6251 26.5998 17.6399 27.5851 17.6396 28.7998C17.6398 30.0146 18.625 30.9998 19.8398 31C21.0547 30.9999 22.0399 30.0147 22.04 28.7998C22.0398 27.585 21.0547 26.5997 19.8398 26.5996ZM28.7998 26.5996C27.5851 26.5998 26.5998 27.5851 26.5996 28.7998C26.5997 30.0146 27.585 30.9998 28.7998 31C30.0147 30.9999 30.9999 30.0147 31 28.7998C30.9998 27.585 30.0146 26.5997 28.7998 26.5996ZM7.67969 13.7998C6.46494 13.8001 5.4796 14.7852 5.47949 16C5.4796 17.2148 6.46494 18.1999 7.67969 18.2002C8.89456 18.2001 9.87978 17.2149 9.87988 16C9.87977 14.7851 8.89456 13.7999 7.67969 13.7998ZM24.3203 13.7998C23.1054 13.7998 22.1202 14.7851 22.1201 16C22.1202 17.2149 23.1054 18.2002 24.3203 18.2002C25.5351 18.2 26.5204 17.2148 26.5205 16C26.5204 14.7852 25.5351 13.8 24.3203 13.7998ZM16 1C14.785 1.00008 13.7998 1.98522 13.7998 3.2002C13.7999 4.41508 14.7851 5.40031 16 5.40039C17.2149 5.40029 18.2001 4.41507 18.2002 3.2002C18.2002 1.98523 17.2149 1.00011 16 1Z" fill="white"/>
</svg>
